<svg xmlns="http://www.w3.org/2000/svg" xml:space="preserve" width="80" height="80"><path fill="#333" d="M40.023 14.843c-.852-2.124-2.925-3.627-5.354-3.627s-4.503 1.503-5.354 3.627a5.74 5.74 0 0 0-.297 3.313 5.771 5.771 0 0 0 11.42-1.17c0-.758-.15-1.48-.415-2.143z"/><circle cx="44.524" cy="8.727" r="4.35" fill="#333"/><path fill="#F3F2E8" d="M40.319 18.156a5.771 5.771 0 0 1-11.3 0h-.483v43.25c0 .67.084 1.317.197 1.956.126.718.322 1.406.577 2.069.14.365.312.711.487 1.057.335.661.73 1.279 1.185 1.858 2.073 2.645 5.259 4.378 8.872 4.378 3.614 0 6.8-1.733 8.874-4.378.453-.579.849-1.197 1.184-1.858.176-.346.348-.689.487-1.055.255-.665.451-1.354.577-2.071.112-.639.197-1.286.197-1.956v-43.25H40.319zm9.047 35.008.005 2.421.002 1.484.003 2.416v.001c0 1.092-.183 2.122-.441 3.117a11.642 11.642 0 0 1-.723 2.012c-.164.354-.313.717-.509 1.045-.39.649-.85 1.232-1.348 1.771-1.704 1.834-3.98 2.98-6.502 2.98-2.521 0-4.797-1.146-6.501-2.98a10.651 10.651 0 0 1-1.347-1.771c-.197-.328-.346-.691-.51-1.045a11.725 11.725 0 0 1-.723-2.012c-.259-.995-.441-2.025-.441-3.117V28.922c1.719.05 3.129-.084 4.348-.328.653-.13 1.239-.297 1.78-.49.138-.049.268-.104.4-.157a10.754 10.754 0 0 0 2.046-1.069c3.462-2.339 4.5-5.766 10.429-5.201v1.698c.002.713.002 1.471.002 2.269v1.238l.002 2.292a63911.207 63911.207 0 0 1 .007 7.162l.002 2.425.019 14.403z"/><path fill="#333" d="M40.023 14.843a5.76 5.76 0 0 1 .296 3.313h10.854v43.25c0 .67-.085 1.317-.197 1.956a11.15 11.15 0 0 1-.577 2.071c-.14.365-.312.709-.487 1.055a11.23 11.23 0 0 1-1.184 1.858c-2.074 2.645-5.26 4.378-8.874 4.378-3.613 0-6.799-1.733-8.872-4.378a11.17 11.17 0 0 1-1.185-1.858 11.25 11.25 0 0 1-.487-1.057 11.108 11.108 0 0 1-.577-2.069c-.112-.639-.197-1.286-.197-1.956v-43.25h.483a5.724 5.724 0 0 1 .297-3.313h-4.093v46.564c0 1.025.109 2.029.312 2.996.147.709.361 1.393.608 2.06.133.36.277.712.438 1.059.308.667.656 1.308 1.058 1.916 2.62 3.971 7.115 6.601 12.216 6.601 5.102 0 9.597-2.63 12.217-6.601a14.662 14.662 0 0 0 1.496-2.975c.247-.667.46-1.351.608-2.06.203-.967.312-1.971.312-2.996V14.844H40.023z"/><path fill="#4CE7DE" d="m49.373 57.069-.002-1.484-.005-2.421-.019-14.404-.002-2.425-.001-1.485a82980.15 82980.15 0 0 0-.006-5.677l-.002-2.292v-1.238c0-.798 0-1.555-.002-2.269v-1.698c-5.93-.564-6.967 2.862-10.429 5.201-.593.4-1.271.761-2.046 1.069-.132.053-.262.108-.4.157-.541.193-1.126.36-1.78.49-1.219.244-2.628.378-4.348.328v30.564c0 1.092.182 2.122.441 3.117.184.704.423 1.373.723 2.012.164.354.313.717.51 1.045.389.649.848 1.232 1.347 1.771 1.704 1.834 3.98 2.98 6.501 2.98 2.521 0 4.798-1.146 6.502-2.98.498-.538.958-1.121 1.348-1.771.195-.328.345-.691.509-1.045.3-.639.539-1.308.723-2.012.259-.995.441-2.025.441-3.117v-.001l-.003-2.415z"/></svg>